<svg width="100" height="49" viewBox="0 0 100 49" fill="none" xmlns="http://www.w3.org/2000/svg">
<path d="M25 16.2205C25 16.6184 24.8418 16.9983 24.5436 17.354C24.2393 17.7338 23.7829 18.0896 23.1926 18.4152C22.517 18.789 21.6772 19.1206 20.7096 19.404C18.5187 20.0551 15.6463 20.447 12.5 20.447C9.3537 20.447 6.49343 20.0491 4.29649 19.404C3.32278 19.1206 2.48296 18.789 1.81354 18.4152C1.22931 18.0896 0.766796 17.7278 0.456426 17.354C0.158228 16.9983 0 16.6184 0 16.2205C0 15.8226 0.158228 15.4548 0.456426 15.093C1.11368 14.2851 2.47079 13.5736 4.29041 13.0431C6.48126 12.3919 9.3537 12 12.4939 12C15.6341 12 18.5066 12.3979 20.7035 13.0431C22.5231 13.5736 23.8802 14.2851 24.5375 15.093C24.8357 15.4548 24.9939 15.8346 24.9939 16.2205H25Z" fill="#2F2F2F"/>
<path d="M3.9859 23.9079V28.454C2.97567 28.1585 2.10542 27.8149 1.41165 27.423C0.803083 27.0853 0.322315 26.7175 0.00585938 26.3256V21.7795C0.322315 22.1714 0.803083 22.5392 1.41165 22.8769C2.10542 23.2688 2.97567 23.6124 3.9859 23.9079Z" fill="#2F2F2F"/>
<path d="M3.9859 28.454V33.0001C2.97567 32.7047 2.10542 32.361 1.41165 31.9691C0.803083 31.6315 0.322315 31.2637 0.00585938 30.8718V26.3257C0.322315 26.7176 0.803083 27.0854 1.41165 27.423C2.10542 27.8149 2.97567 28.1586 3.9859 28.454Z" fill="#2F2F2F"/>
<path d="M25 21.7795V26.3256C24.6836 26.7175 24.2089 27.0853 23.6003 27.423C22.9005 27.8149 22.0302 28.1585 21.02 28.454C18.7439 29.1292 15.7619 29.5332 12.5 29.5332C9.23809 29.5332 6.26219 29.1292 3.98615 28.454V23.9079C6.26219 24.5832 9.24418 24.9871 12.5 24.9871C15.7559 24.9871 18.7439 24.5832 21.02 23.9079C22.0302 23.6124 22.9005 23.2688 23.6003 22.8769C24.2089 22.5392 24.6836 22.1714 25 21.7795Z" fill="#2F2F2F"/>
<path d="M32.5012 18.2418C32.0994 18.6121 31.6183 18.8003 31.052 18.8003C30.4857 18.8003 30.0047 18.6121 29.6028 18.2418C29.2009 17.8715 29 17.4223 29 16.8941C29 16.3659 29.2009 15.9167 29.6028 15.5524C30.0047 15.1821 30.4857 15 31.052 15C31.6183 15 32.0994 15.1821 32.5012 15.5524C32.9031 15.9228 33.1041 16.372 33.1041 16.8941C33.1041 17.4162 32.9031 17.8715 32.5012 18.2418ZM29.0487 32.7632V20.2573H33.0432V32.7632H29.0487Z" fill="#2F2F2F"/>
<path d="M39.5704 25.6299V32.7631H35.5759V20.2572H39.3755V22.5519H39.5156C39.7957 21.787 40.2706 21.186 40.9404 20.7489C41.6102 20.3118 42.4079 20.0933 43.3274 20.0933C44.6426 20.0933 45.7021 20.5243 46.4937 21.3864C47.2853 22.2484 47.6811 23.3837 47.6811 24.7921V32.7631H43.6866V25.5752C43.6866 24.8831 43.5161 24.3368 43.1569 23.9482C42.7976 23.5597 42.3044 23.3594 41.6772 23.3594C41.05 23.3594 40.5325 23.5597 40.1489 23.9665C39.7652 24.3732 39.5765 24.9256 39.5704 25.6299Z" fill="#2F2F2F"/>
<path d="M56.0172 32.9999C54.7141 32.9999 53.5815 32.7267 52.6194 32.1803C51.6574 31.6339 50.9267 30.8751 50.4274 29.9098C49.9281 28.9385 49.6784 27.8214 49.6784 26.5526C49.6784 25.2838 49.9281 24.1547 50.4274 23.1833C50.9267 22.212 51.6574 21.4532 52.6194 20.9129C53.5815 20.3726 54.708 20.0994 56.005 20.0994C57.7404 20.0994 59.1348 20.5607 60.1943 21.4835C61.2477 22.4063 61.7957 23.6387 61.8384 25.1806H58.1057C58.0327 24.5371 57.8135 24.0393 57.4542 23.6751C57.0949 23.3108 56.6322 23.1287 56.0659 23.1287C55.3535 23.1287 54.7872 23.4201 54.3731 24.009C53.9591 24.5978 53.7459 25.4295 53.7459 26.5162C53.7459 27.6029 53.953 28.4467 54.367 29.0356C54.7811 29.6245 55.3474 29.922 56.0659 29.922C56.62 29.922 57.0828 29.7398 57.4481 29.3817C57.8135 29.0235 58.0327 28.5196 58.1057 27.8639H61.8384C61.7836 29.4302 61.2355 30.6747 60.1943 31.6036C59.1531 32.5324 57.7587 32.9999 56.0111 32.9999H56.0172Z" fill="#2F2F2F"/>
<path d="M73.1336 32.1924C72.1715 32.7327 71.045 32.9998 69.748 32.9998C68.451 32.9998 67.3245 32.7327 66.3625 32.1924C65.4004 31.6521 64.6697 30.8993 64.1643 29.928C63.6589 28.9567 63.4092 27.8336 63.4092 26.5526C63.4092 25.2717 63.6589 24.1425 64.1643 23.1712C64.6697 22.1998 65.4004 21.441 66.3625 20.9007C67.3245 20.3604 68.451 20.0933 69.748 20.0933C71.045 20.0933 72.1715 20.3604 73.1336 20.9007C74.0956 21.441 74.8263 22.1938 75.3317 23.1712C75.8371 24.1425 76.0868 25.2717 76.0868 26.5526C76.0868 27.8336 75.8371 28.9567 75.3317 29.928C74.8263 30.8993 74.0956 31.6521 73.1336 32.1924ZM69.7724 29.9948C70.4726 29.9948 71.0267 29.6791 71.4225 29.0477C71.8183 28.4164 72.0192 27.5786 72.0192 26.5223C72.0192 25.4659 71.8183 24.6221 71.4225 23.9907C71.0267 23.3533 70.4726 23.0376 69.7724 23.0376C69.0721 23.0376 68.4815 23.3533 68.0796 23.9847C67.6777 24.616 67.4768 25.4599 67.4768 26.5223C67.4768 27.5847 67.6777 28.4164 68.0796 29.0477C68.4815 29.6791 69.0478 29.9948 69.7724 29.9948Z" fill="#2F2F2F"/>
<path d="M78.1388 32.7633V20.2574H82.0175V22.54H82.1454C82.3707 21.7326 82.7361 21.1194 83.2475 20.7066C83.759 20.2938 84.3679 20.0874 85.0682 20.0874C85.4518 20.0874 85.8232 20.136 86.1886 20.2331V23.6935C85.7745 23.5538 85.2509 23.481 84.6176 23.481C83.893 23.481 83.2963 23.7117 82.8274 24.1731C82.3585 24.6344 82.1272 25.2355 82.1272 25.97V32.7633H78.1327H78.1388Z" fill="#2F2F2F"/>
<path d="M93.0388 32.9998C91.0659 32.9998 89.5193 32.4292 88.3867 31.2818C87.2541 30.1344 86.6939 28.5621 86.6939 26.5587C86.6939 25.2778 86.9497 24.1486 87.455 23.1712C87.9604 22.1938 88.685 21.4349 89.635 20.9007C90.5788 20.3604 91.6748 20.0933 92.9231 20.0933C93.8182 20.0933 94.6341 20.2329 95.377 20.5182C96.1199 20.8035 96.7592 21.2103 97.295 21.7385C97.8309 22.2666 98.251 22.9405 98.5494 23.7479C98.8478 24.5553 99 25.4659 99 26.4737V27.4693H90.6336V27.5725C90.6336 28.3435 90.8589 28.9627 91.3034 29.4241C91.7479 29.8855 92.3568 30.1223 93.1179 30.1223C93.6477 30.1223 94.1044 30.013 94.488 29.7944C94.8716 29.5759 95.1395 29.2602 95.2917 28.8474L98.9574 28.9506C98.726 30.1951 98.0866 31.1786 97.0454 31.9071C96.0042 32.6356 94.6706 32.9998 93.0448 32.9998H93.0388ZM90.6275 25.1563H95.2735C95.2613 24.5128 95.0421 23.9907 94.6219 23.5779C94.1957 23.1651 93.6538 22.9648 92.9961 22.9648C92.3385 22.9648 91.7844 23.1712 91.3399 23.5901C90.8954 24.0089 90.6579 24.531 90.6275 25.1563Z" fill="#2F2F2F"/>
</svg>
